<?xml version="1.0" encoding="UTF-8" standalone="no"?>
<svg width="512px" xmlns="http://www.w3.org/2000/svg" viewBox="-18 0 511 511.99965" height="512px">
 <path d="m420.11 182.4c0-100.57-81.824-182.4-182.4-182.4s-182.4 81.824-182.4 182.4c0 57.344 26.965 111.18 72.531 145.6v40.922c0 60.582 49.293 109.86 109.87 109.86 60.574 0 109.86-49.281 109.86-109.86v-40.922c45.566-34.426 72.535-88.258 72.535-145.6zm-103.23 137.74v48.781c0 43.66-35.52 79.172-79.172 79.172-43.656 0-79.176-35.512-79.176-79.172v-48.781c0-5.0547-2.4844-9.7812-6.6484-12.645-41.25-28.359-65.883-75.121-65.883-125.1 0-83.652 68.051-151.71 151.71-151.71 83.652 0 151.71 68.055 151.71 151.71 0 49.977-24.637 96.738-65.887 125.1-4.1602 2.8633-6.6484 7.5898-6.6484 12.645z" fill="#66339f"/>
 <path d="m222.51 172.02c0-31.508-25.637-57.145-57.137-57.145-31.512 0-57.148 25.637-57.148 57.145 0 31.5 25.637 57.137 57.148 57.137 31.5 0 57.137-25.637 57.137-57.137zm-57.137 26.445c-14.59 0-26.457-11.867-26.457-26.445 0-14.586 11.867-26.453 26.457-26.453 14.578 0 26.445 11.867 26.445 26.453 0 14.578-11.867 26.445-26.445 26.445z" fill="#66339f"/>
 <path d="m367.2 172.02c0-31.508-25.637-57.145-57.145-57.145-31.5 0-57.137 25.637-57.137 57.145 0 31.5 25.637 57.137 57.137 57.137 31.508 0 57.145-25.637 57.145-57.137zm-57.148 26.445c-14.578 0-26.445-11.867-26.445-26.445 0-14.586 11.867-26.453 26.445-26.453 14.59 0 26.457 11.867 26.457 26.453 0 14.578-11.867 26.445-26.457 26.445z" fill="#66339f"/>
 <path d="m236.57 246.48c-26.406 0-47.898 21.484-47.898 47.902v76.797c0 24.215 18.496 47.898 50.168 47.898 26.406 0 47.898-21.48 47.898-47.898v-76.797c0-24.219-18.496-47.902-50.168-47.902zm19.477 124.7c0 9.4844-7.7227 17.207-17.207 17.207h-2.2695c-9.4844 0-17.207-7.7227-17.207-17.207v-76.797c0-9.4844 7.7227-17.211 17.207-17.211h2.2695c9.4844 0 17.207 7.7266 17.207 17.211z" fill="#66339f"/>
 <path d="m445.6 328.95c-19.699-18.348-51.73-10.426-60.637 14.938l-33.859 96.617c-9.8008 27.953 4.8359 58.602 32.918 68.449 28.133 9.8398 58.664-4.9844 68.453-32.922l17.258-49.227c12.094-34.508 2.6211-72.922-24.133-97.855zm-4.8281 87.695-17.258 49.238c-4.2227 12.027-17.363 18.312-29.344 14.109-11.969-4.1953-18.301-17.359-14.105-29.332l33.863-96.625c1.582-4.4883 7.2305-5.9062 10.742-2.6289 17.84 16.625 24.164 42.23 16.102 65.238z" fill="#66339f"/>
 <path d="m90.453 343.89c-8.9141-25.395-40.961-33.266-60.637-14.938-26.75 24.934-36.227 63.348-24.133 97.844l17.258 49.238c9.8008 27.969 40.371 42.762 68.453 32.922 28.066-9.8398 42.723-40.48 32.922-68.449-0.027344-0.074218-33.84-96.547-33.863-96.617zm-9.207 136.11c-11.98 4.2031-25.121-2.0781-29.34-14.109l-17.25-49.238c-8.0703-23.008-1.75-48.613 16.094-65.238 3.5-3.2656 9.1445-1.8867 10.742 2.6289l33.863 96.625c4.1406 11.867-1.9453 25.047-14.109 29.332z" fill="#66339f"/>
</svg>
